<svg version="1.2" xmlns="http://www.w3.org/2000/svg" viewBox="0 0 1592 1599" width="1592" height="1599">
	<title>download (2)-svg</title>
	<style>
		.s0 { fill: #927239 } 
	</style>
	<g id="Layer">
		<path id="Layer" fill-rule="evenodd" class="s0" d="m366.3 688.7c-95 54.3-189.9 135.8-189.9 253.4v95c-72.3-108.6-94.9-239.8-94.9-380.1 76.8 45.3 185.3 67.9 284.8 31.7zm-67.8-221.7c49.7 27.2 103.9 49.8 167.2 54.3l22.6 45.3c-45.2-58.9-131.1-49.8-198.9-40.8-45.2 0-90.4 63.4-122 40.8-40.7 4.5-76.9-4.6-104-22.7 85.9 22.7 135.6-122.1 235.1-76.9zm-108.5 63.4c-13.6-22.7-63.3 9-58.8 27.1h31.6zm-185.3-457c58.8 13.6 113 45.3 153.7 104.1 27.1 72.4 9 126.7-58.8 153.8-31.6 0-63.3-9-94.9-18.1zm207.9 1520.3c158.3-190 4.6-497.7 113.1-719.4 36.1-54.3 58.7-90.5 113-144.8l4.5 4.5c-58.8 72.4-108.5 140.3-117.5 230.8-9.1 226.2 343.5 362 162.7 597.2-9 13.6-22.6 27.2-31.6 36.2zm583.1-1588.1h795.7v1592.7h-795.7c239.6-185.6 393.3-470.6 393.3-796.4 0-325.8-153.7-615.3-393.3-796.3zm-795.6 932.1c135.6 199 357.1 375.5 171.8 628.9l-31.7 31.7h-135.6zm415.9-868.8c22.6 45.3 13.6 131.2-9 185.5l-167.3 18.1c9.1-90.5-49.7-162.9-126.6-208.1-31.6-13.6-72.3-27.2-108.5-31.7v-27.1h375.3c13.5 13.6 27.1 36.2 36.1 63.3zm144.7-67.8c72.3 27.1 113 63.3 171.8 108.5-85.9-22.6-167.3 9.1-235.1 58.9-4.5-49.8-4.5-113.2-40.7-162.9zm13.6 1597.2h-58.8c63.3-99.6 104-230.8 45.2-343.9 99.5 9.1 185.4-27.1 244.1-108.6 9.1-18.1-9-27.1-22.6-40.7-72.3 27.1-149.2 63.3-235.1 49.8-54.2-45.3-140.1-77-158.2-153.9 13.6-67.8-4.5-158.3 63.3-203.6 0 4.5 0 9.1 0 18.1 49.7 9.1 99.5 40.7 149.2 27.2 45.2-49.8 108.5-67.9 158.2-113.2 18.1 22.7 49.7 9.1 72.4 13.6 108.5 104.1 122 262.5 103.9 411.8-13.5 235.2-180.8 361.9-361.6 443.4zm198.9-583.7c-22.6-4.5-13.6 27.1-36.2 36.2-45.2-9.1-104 76.9-126.6 4.5l-13.5 13.6c0 22.6-9.1 54.3 13.5 72.4 63.3-36.2 198.9-13.6 162.8-126.7zm9-244.3c-31.6-27.2-117.5 40.7-149.2 72.4 0 27.1-13.5 72.4 13.6 76.9 13.6-9.1 4.5-31.7 9-45.3 22.6-45.2 63.3-58.8 104-67.8l18.1 45.2 13.6-36.2c4.5-18.1 0-40.7-9.1-45.2zm135.6 556.5c76.9-181 108.5-461.5-45.2-619.9-31.6-40.7 9.1-117.6-63.3-135.7-18 22.6-31.6 86-72.3 58.8-40.7-27.1-90.4-31.7-135.6-49.8 54.2-13.5 153.7 31.7 189.9-36.2-4.6-18.1-13.6-45.2-36.2-49.7-45.2 18.1-36.2-18.1-58.8-40.8-54.2-13.5-126.6-18.1-153.7-76.9 36.2-18.1 58.8 36.2 85.9 58.8 22.6-9 9.1-31.6 13.6-49.7-49.7-45.3-108.5-90.5-162.8-122.2 27.2-45.2 104-104.1 180.9-108.6 203.4-13.6 357.1 217.2 406.8 389.1 45.2 172 63.3 597.3-149.2 782.8z"/>
	</g>
</svg>