<?xml version="1.0" encoding="utf-8"?>
<!-- Generator: Adobe Illustrator 26.0.3, SVG Export Plug-In . SVG Version: 6.00 Build 0)  -->
<svg version="1.0"
	 id="svg874" inkscape:version="0.92.5 (2060ec1f9f, 2020-04-08)" xmlns:cc="http://creativecommons.org/ns#" xmlns:dc="http://purl.org/dc/elements/1.1/" xmlns:inkscape="http://www.inkscape.org/namespaces/inkscape" xmlns:rdf="http://www.w3.org/1999/02/22-rdf-syntax-ns#" xmlns:sodipodi="http://sodipodi.sourceforge.net/DTD/sodipodi-0.dtd" xmlns:svg="http://www.w3.org/2000/svg"
	 xmlns="http://www.w3.org/2000/svg" xmlns:xlink="http://www.w3.org/1999/xlink" x="0px" y="0px" viewBox="0 0 2507.5 1595.5"
	 style="enable-background:new 0 0 2507.5 1595.5;" xml:space="preserve">
<style type="text/css">
	.st0{fill:#1F375B;}
	.st1{fill:#1493FF;}
</style>
<g id="layer1" transform="translate(47.927804,-44.806208)" inkscape:groupmode="layer" inkscape:label="Layer 1">
	<g id="g1443" transform="matrix(0.76158217,0,0,0.75008308,-47.923982,44.806208)">
		<g id="g1435">
			<path id="path1421" inkscape:connector-curvature="0" class="st0" d="M912.5,1224.9h54.4c2.3,0,4.3-2,4.3-4.3v-126.7h97.5
				c1.7,0,3.4-1.1,4-2.8l17.3-47.6c0.9-2.3-0.3-4.5-2.6-5.4c-0.6-0.3-0.9-0.3-1.4-0.3H971.2v-79.4h146.6c1.7,0,3.4-1.1,4-2.8
				l17.6-47.6c0.9-2.3-0.3-4.5-2.6-5.4c-0.6-0.3-0.9-0.3-1.4-0.3H912.5c-2.3,0-4.3,2-4.3,4.3v314.1
				C908.2,1223.2,910.2,1224.9,912.5,1224.9L912.5,1224.9z"/>
			<path id="path1423" inkscape:connector-curvature="0" class="st0" d="M1261.2,905.1l-114.2,314.1c-0.9,2.3,0.3,4.5,2.6,5.4
				c0.6,0.3,0.9,0.3,1.4,0.3h56.7c1.7,0,3.4-1.1,4-2.8l18.4-54.1h114.8l18.1,54.1c0.6,1.7,2.3,2.8,4,2.8h56.4c2.3,0,4.3-2,4.3-4.3
				c0-0.6,0-0.9-0.3-1.4l-114.5-314.1c-0.6-1.7-2.3-2.8-4-2.8h-43.4C1263.4,902.3,1262,903.4,1261.2,905.1z M1247.8,1114.9
				l40.8-117.4l39.4,117.4H1247.8z"/>
			<path id="path1425" inkscape:connector-curvature="0" class="st0" d="M1685.2,1099.9l-126.7-195.6c-0.9-1.1-2.3-2-3.7-2h-49.6
				c-2.3,0-4.3,2-4.3,4.3l0,0v314.1c0,2.3,2,4.3,4.3,4.3l0,0h54.4c2.3,0,4.3-2,4.3-4.3l0,0v-193.9l126.7,196.2c0.9,1.1,2.3,2,3.7,2
				h49.6c2.3,0,4.3-2,4.3-4.3l0,0V906.5c0-2.3-2-4.3-4.3-4.3l0,0h-54.4c-2.3,0-4.3,2-4.3,4.3l0,0V1099.9z"/>
			<path id="path1427" inkscape:connector-curvature="0" class="st0" d="M2355.6,1112.1c0,37.1-22.1,59.5-56.1,59.5
				c-34,0-55.8-22.1-55.8-59.5V906.5c0-2.3-2-4.3-4.3-4.3l0,0H2185c-2.3,0-4.3,2-4.3,4.3l0,0v207.8c0,68.6,52.7,113.4,118.8,113.4
				s118.8-44.8,118.8-113.4V906.5c0-2.3-2-4.3-4.3-4.3l0,0h-53.9c-2.3,0-4.3,2-4.3,4.3l0,0L2355.6,1112.1z"/>
			<path id="path1429" inkscape:connector-curvature="0" class="st0" d="M2733.7,955.6L2751,908c0.9-2.3-0.3-4.5-2.6-5.4
				c-0.6-0.3-0.9-0.3-1.4-0.3h-222.5c-2.3,0-4.3,2-4.3,4.3l0,0v314.1c0,2.3,2,4.3,4.3,4.3l0,0h222.5c2.3,0,4.3-2,4.3-4.3
				c0-0.6,0-0.9-0.3-1.4l-17.3-47.6c-0.6-1.7-2.3-2.8-4-2.8h-146.6v-78.5h117.9c2.3,0,4.3-2,4.3-4.3l0,0v-47.6c0-2.3-2-4.3-4.3-4.3
				l0,0h-117.9v-75.7h146.6C2731.5,958.4,2733.2,957.3,2733.7,955.6z"/>
			<path id="path1431" inkscape:connector-curvature="0" class="st0" d="M3022.6,1168.7h-133.2V906.5c0-2.3-2-4.3-4.3-4.3
				c0,0,0,0-0.3,0h-54.4c-2.3,0-4.3,2-4.3,4.3l0,0v314.1c0,2.3,2,4.3,4.3,4.3l0,0h209.2c2.3,0,4.3-2,4.3-4.3c0-0.6,0-0.9-0.3-1.4
				l-17.3-47.6C3026,1169.9,3024.3,1168.7,3022.6,1168.7L3022.6,1168.7z"/>
			<path id="path1433" inkscape:connector-curvature="0" class="st0" d="M2056.8,933.2c-21.3-21.3-51.6-30.9-85.3-30.9h-128.1
				c-2.3,0-4.3,2-4.3,4.3c0,0.3,0,0.6,0,0.9l9.4,47.6c0.6,2,2,3.4,4,3.4H1965c21.8,0,36.3,6.8,47.1,19.8
				c11.9,14.5,13.6,34.9,13.6,83.9c0,49-1.7,72-13.6,86.5c-10.8,13-25.5,19.8-47.1,19.8h-46.8v-167.5c0-2.3-2-4.3-4.3-4.3l0,0h-54.4
				c-2.3,0-4.3,2-4.3,4.3l0,0v220c0,2.3,2,4.3,4.3,4.3l0,0h112.3c33.4,0,64.1-9.6,85.3-30.9c36.3-36.3,32.6-83.3,32.6-131.8
				C2089.4,1013.7,2093.1,969.2,2056.8,933.2L2056.8,933.2z"/>
		</g>
		<g id="g1441">
			<path id="path1437" inkscape:connector-curvature="0" class="st1" d="M455,896.6c9.6-20.7,20.7-40.3,33.4-58.4
				c5.1-7.4,10.5-14.2,15.9-20.7c0.9-1.4,0-3.4-1.7-3.4c-1.4,0-2.8,0-4.3,0c-57,0-112,9.6-163,27.2c-26.4,9.1-51.9,20.4-76.3,33.7
				c-6.8,3.7-10.8,10.8-10.5,18.4c0.6,28.3,3.7,55.8,9.1,82.8c4.8,25.2,11.6,49.9,20.1,73.7c10.2,28.6,23,56.1,38.3,81.9
				c27.8,47.9,63.2,90.7,104.9,126.7c7.1,6.2,14.5,12.2,21.8,17.9c1.7,1.1,4-0.6,3.1-2.3c-3.1-7.7-6-15.6-8.5-23.5
				c-12.8-38.3-20.7-79.4-23.2-121.9c0-2-0.9-3.7-1.7-5.1c-10.5-14.5-19.8-29.2-28.3-45.1c7.7-4.3,15.9-7.9,24.1-11.1
				c3.7-1.4,6-4.8,6.2-8.8c2-28.3,6.2-56.4,13-83.1c0.3-1.4-0.9-2.8-2.3-2.6c-25.8,6-50.7,14.7-73.7,26.4
				c-6.5-22.1-11.3-44.8-14.2-68c34.6-14.7,71.7-24.7,110.3-29.5C450.4,902,453.3,899.7,455,896.6L455,896.6z"/>
			<path id="path1439" inkscape:connector-curvature="0" class="st1" d="M737.6,875.1c-24.4-13.3-49.6-24.4-76.3-33.7
				c-35.4-12.2-72.3-20.4-110.8-24.4c-3.1-0.3-6,0.9-8.2,2.8c-20.7,21.3-39.1,47.1-54.1,76.5c-0.6,1.4,0.3,2.8,1.7,2.8
				c2.8,0,5.4,0,8.2,0c57.3,0,112,11.6,161.9,32.6c-2.8,23.2-7.7,46.2-14.2,68c-8.2,27.5-19.3,53.9-32.9,78.8
				c-28.3,52.2-67.7,97.8-114.8,133.2c-16.4-12.5-31.7-25.8-45.9-40.5c-1.4-1.4-3.7-0.3-3.4,1.7c3.7,21.5,8.5,42.5,14.7,62.4
				c8.8,27.8,20.1,53.3,33.7,76.5c0.6,0.9,1.7,1.4,2.8,0.9c26.9-15.9,52.4-34,76-54.4c41.4-36,77.1-78.8,104.9-126.7
				c15-26.1,27.8-53.3,38.3-81.9c8.5-23.8,15.3-48.5,20.1-73.7c5.1-26.9,8.2-54.7,9.1-82.8C748.4,885.6,744.4,878.5,737.6,875.1
				L737.6,875.1z"/>
		</g>
	</g>
</g>
</svg>
