<?xml version="1.0" encoding="utf-8"?>
<!-- Generator: Adobe Illustrator 26.5.0, SVG Export Plug-In . SVG Version: 6.00 Build 0)  -->
<svg version="1.0" id="uuid-71fcb5e7-fb7a-419b-9200-73945864c956"
	 xmlns="http://www.w3.org/2000/svg" xmlns:xlink="http://www.w3.org/1999/xlink" x="0px" y="0px" viewBox="0 0 2310.33 1625.86"
	 style="enable-background:new 0 0 2310.33 1625.86;" xml:space="preserve">
<style type="text/css">
	.st0{fill:#BB9D5E;}
	.st1{fill:#0A3231;}
</style>
<g id="uuid-bb26cc0f-d940-4888-bce6-0af211a50301">
	<g>
		<path class="st0" d="M267.54,1005.93l-88.58-87.74c-12.71-12.29-19.29-27.2-19.29-46.06v-32.48c0-27.18,18.42-46.05,46.04-46.05
			h71.91c27.63,0,46.47,18.87,46.47,46.06v47.83h-54.8v-40.8c0-1.32-0.87-1.76-1.76-1.76h-51.3c-1.31,0-1.74,0.44-1.74,1.76v30.27
			c0,1.76,0.44,2.63,1.74,3.95l88.57,87.73c12.28,12.29,19.29,27.2,19.29,46.07v41.24c0,27.64-18.84,46.49-46.47,46.49h-71.91
			c-27.62-0.01-46.04-18.86-46.04-46.5v-47.82h54.82v41.24c0,0.87,0.44,1.76,1.74,1.76h51.3c0.88,0,1.76-0.89,1.76-1.76v-39.48
			c0-1.76-0.87-2.64-1.76-3.95L267.54,1005.93z"/>
		<path class="st0" d="M481.11,981.81h-63.14v119.76h-54.82V794.48h117.96c27.63,0,46.47,18.85,46.47,46.06v95.19
			c0,27.2-18.41,46.07-46.47,46.07L481.11,981.81z M471.02,844.93h-53.05v86.42h53.05c0.88,0,1.76-0.44,1.76-1.76v-82.91
			c0-1.32-0.87-1.76-1.76-1.76V844.93z"/>
		<path class="st0" d="M679.35,1102.43h-71.92c-27.18,0-46.04-18.85-46.04-46.49V839.66c0-27.19,18.86-46.06,46.04-46.06h71.92
			c27.63,0,46.47,18.87,46.47,46.06v216.28C725.82,1083.58,706.98,1102.43,679.35,1102.43L679.35,1102.43z M669.26,844.92h-51.3
			c-1.31,0-1.74,0.44-1.74,1.76v202.68c0,0.87,0.44,1.76,1.74,1.76h51.3c0.88,0,1.76-0.89,1.76-1.76V846.68
			C671.02,845.36,670.15,844.92,669.26,844.92z"/>
		<path class="st0" d="M876.26,1101.56L845.12,981.8H819.7v119.76h-54.82V794.48h117.96c27.63,0,46.47,18.85,46.47,46.06v95.19
			c0,22.38-12.27,39.04-32.45,44.31l36.83,121.51h-57.43V1101.56z M819.7,931.35h53.05c0.88,0,1.76-0.44,1.76-1.76v-82.91
			c0-1.32-0.87-1.76-1.76-1.76H819.7v86.42V931.35z"/>
		<path class="st0" d="M1067.03,844.93v256.63h-54.82V844.93h-54.8v-50.44h164.43v50.44h-54.8H1067.03z"/>
		<path class="st0" d="M1257.79,1005.93l-88.57-87.74c-12.72-12.29-19.29-27.2-19.29-46.06v-32.48c0-27.19,18.42-46.06,46.04-46.06
			h71.92c27.63,0,46.47,18.87,46.47,46.06v47.83h-54.8v-40.8c0-1.32-0.87-1.76-1.76-1.76h-51.3c-1.31,0-1.74,0.44-1.74,1.76v30.27
			c0,1.76,0.44,2.63,1.74,3.95l88.57,87.73c12.28,12.29,19.29,27.2,19.29,46.07v41.24c0,27.64-18.84,46.49-46.47,46.49h-71.92
			c-27.61,0-46.04-18.85-46.04-46.49v-47.82h54.82v41.24c0,0.87,0.44,1.76,1.74,1.76h51.3c0.88,0,1.76-0.89,1.76-1.76v-39.48
			C1259.55,1008.12,1258.68,1007.24,1257.79,1005.93L1257.79,1005.93z"/>
		<path class="st0" d="M1471.81,1101.56h-117.95V794.48h117.95c27.63,0,46.48,18.85,46.48,46.06v65.36
			c0,18.87-7.9,30.72-21.93,35.54v0.87c14.04,4.39,21.93,16.67,21.93,35.54v77.2C1518.29,1082.69,1499.43,1101.56,1471.81,1101.56
			L1471.81,1101.56z M1463.48,915.99v-69.31c0-1.32-0.87-1.76-1.76-1.76h-53.05v72.83h53.05
			C1462.6,917.75,1463.48,917.31,1463.48,915.99z M1463.48,1049.35v-81.6c0-0.87-0.87-1.76-1.76-1.76h-53.05v85.11h53.05
			c0.88,0,1.76-0.88,1.76-1.76V1049.35z"/>
		<path class="st0" d="M1675.3,1102.43h-71.92c-27.18,0-46.04-18.85-46.04-46.49V839.66c0-27.19,18.86-46.06,46.04-46.06h71.92
			c27.63,0,46.47,18.87,46.47,46.06v216.28C1721.77,1083.58,1702.93,1102.43,1675.3,1102.43z M1665.21,844.92h-51.3
			c-1.31,0-1.74,0.44-1.74,1.76v202.68c0,0.87,0.44,1.76,1.74,1.76h51.3c0.88,0,1.76-0.89,1.76-1.76V846.68
			C1666.97,845.36,1666.1,844.92,1665.21,844.92z"/>
		<path class="st0" d="M1878.79,1102.43h-71.92c-27.18,0-46.04-18.85-46.04-46.49V839.66c0-27.19,18.86-46.06,46.04-46.06h71.92
			c27.63,0,46.47,18.87,46.47,46.06v216.28C1925.26,1083.58,1906.42,1102.43,1878.79,1102.43z M1868.7,844.92h-51.3
			c-1.31,0-1.74,0.44-1.74,1.76v202.68c0,0.87,0.44,1.76,1.74,1.76h51.3c0.88,0,1.76-0.89,1.76-1.76V846.68
			C1870.46,845.36,1869.59,844.92,1868.7,844.92z"/>
		<path class="st0" d="M2089.29,1101.56l-46.47-114.5l-23.68,47.38v67.12h-54.82V794.48h54.82v141.69l68.83-141.69h57.45
			l-67.09,134.67l72.34,172.41H2089.29L2089.29,1101.56z"/>
		<path class="st1" d="M256.89,555.17c-11.43,0-21.88,2.82-31.33,8.45c-9.46,5.63-16.85,13.31-22.18,23.03
			c-5.33,9.72-7.99,20.34-7.99,31.86c0,17.97,6.06,33.05,18.18,45.21c12.12,12.17,27.08,18.25,44.87,18.25
			c11.26,0,21.32-2.37,30.17-7.1c8.85-4.73,16.25-10.92,22.18-18.58l24.5,21.93c-8.51,10.84-19.47,19.44-32.88,25.8
			c-13.41,6.36-28.32,9.55-44.74,9.55c-14.1,0-27.27-2.47-39.52-7.42c-12.25-4.95-22.63-11.67-31.14-20.19
			c-8.51-8.52-15.19-18.6-20.05-30.25c-4.86-11.63-7.29-24.04-7.29-37.2c0-13.16,2.41-25.56,7.22-37.22
			c4.81-11.65,11.45-21.74,19.92-30.25s18.78-15.24,30.95-20.19s25.29-7.41,39.39-7.41s25.87,2.32,37.39,6.97
			c11.52,4.64,21.58,11.14,30.17,19.48l-22.95,24.25c-12.64-12.64-27.59-18.96-44.87-18.96V555.17z"/>
		<path class="st1" d="M383.12,711.01h-37.26l79.16-184.99h25.14l79.17,184.99H492.2l-17.54-40.89h-74.14l-17.41,40.89H383.12z
			 M437.53,583.69l-23.6,54.7h47.06l-23.47-54.7H437.53z"/>
		<path class="st1" d="M661.37,557.75h-75.3v38.31h56.86v31.73h-56.86v51.47h77.88v31.73H550.48V526.02h110.89
			C661.37,526.02,661.37,557.75,661.37,557.75z"/>
		<path class="st1" d="M681.09,685.85l23.34-24.25c5.5,6.11,12.1,11.03,19.79,14.77s15.62,5.61,23.79,5.61s14.38-2.21,19.41-6.64
			c5.03-4.43,7.54-10,7.54-16.71c0-4.47-1.2-8.43-3.61-11.87s-5.82-6.36-10.25-8.77s-8.96-4.54-13.6-6.39
			c-4.64-1.85-10.04-4.06-16.18-6.64c-6.14-2.58-11.32-5.07-15.54-7.48c-17.45-10.23-26.17-24.25-26.17-42.05
			c0-8,1.74-15.33,5.22-21.99c3.48-6.66,8.08-12.15,13.8-16.45s12.21-7.63,19.47-10s14.76-3.55,22.5-3.55
			c20.11,0,37.99,5.8,53.64,17.41l-18.57,26.44c-3.78-3.53-8.57-6.43-14.38-8.71c-5.8-2.28-11.63-3.42-17.47-3.42
			c-3.52,0-6.92,0.39-10.19,1.16c-3.27,0.77-6.3,1.91-9.09,3.42s-5.05,3.59-6.77,6.26c-1.72,2.67-2.58,5.72-2.58,9.16
			s1.22,6.73,3.67,9.61c2.45,2.88,5.67,5.27,9.67,7.16s8.55,3.93,13.67,6.13c5.11,2.19,10.34,4.32,15.67,6.39
			c5.33,2.06,10.55,4.71,15.67,7.93c5.11,3.23,9.67,6.77,13.67,10.64c4,3.87,7.22,8.81,9.67,14.84c2.45,6.02,3.67,12.77,3.67,20.25
			c0,10.58-2.9,20.17-8.7,28.77c-5.8,8.6-13.45,15.2-22.95,19.8c-9.5,4.6-19.79,6.9-30.88,6.9
			C723.52,713.58,701.22,704.34,681.09,685.85L681.09,685.85z"/>
		<path class="st1" d="M858.26,711.01H821l79.16-184.99h25.14l79.17,184.99h-37.13l-17.54-40.89h-74.14l-17.41,40.89H858.26z
			 M912.67,583.69l-23.6,54.7h47.06L912.67,583.69L912.67,583.69z"/>
		<path class="st1" d="M1074.23,629.09h-13.02V711h-35.59V526.02h67.31c16.85,0,30.3,4.6,40.36,13.8c5.16,4.9,9.18,10.6,12.06,17.09
			s4.32,13.39,4.32,20.7s-1.44,14.21-4.32,20.7s-6.9,12.19-12.06,17.09c-5.24,4.99-11.39,8.6-18.44,10.84l69.24,84.75h-44.1
			l-65.76-81.91L1074.23,629.09z M1061.21,597.36h29.66c8.51,0,14.48-1.85,17.92-5.55c3.52-3.78,5.29-8.43,5.29-13.93
			s-1.76-10.53-5.29-14.32c-3.61-3.87-9.58-5.8-17.92-5.8h-29.66V597.36z"/>
		<path class="st1" d="M1187.95,685.85l23.34-24.25c5.5,6.11,12.1,11.03,19.79,14.77c7.69,3.74,15.62,5.61,23.79,5.61
			s14.38-2.21,19.41-6.64s7.54-10,7.54-16.71c0-4.47-1.2-8.43-3.61-11.87s-5.82-6.36-10.25-8.77c-4.43-2.41-8.96-4.54-13.6-6.39
			c-4.64-1.85-10.04-4.06-16.18-6.64c-6.14-2.58-11.32-5.07-15.54-7.48c-17.45-10.23-26.17-24.25-26.17-42.05
			c0-8,1.74-15.33,5.22-21.99c3.48-6.66,8.08-12.15,13.8-16.45c5.72-4.3,12.21-7.63,19.47-10s14.76-3.55,22.5-3.55
			c20.11,0,37.99,5.8,53.64,17.41l-18.57,26.44c-3.78-3.53-8.57-6.43-14.38-8.71c-5.8-2.28-11.63-3.42-17.47-3.42
			c-3.52,0-6.92,0.39-10.19,1.16c-3.27,0.77-6.3,1.91-9.09,3.42s-5.05,3.59-6.77,6.26c-1.72,2.67-2.58,5.72-2.58,9.16
			s1.22,6.73,3.67,9.61c2.45,2.88,5.67,5.27,9.67,7.16s8.55,3.93,13.67,6.13c5.11,2.19,10.34,4.32,15.67,6.39
			c5.33,2.06,10.55,4.71,15.67,7.93c5.12,3.22,9.67,6.77,13.67,10.64c4,3.87,7.22,8.81,9.67,14.84c2.45,6.02,3.67,12.77,3.67,20.25
			c0,10.58-2.9,20.17-8.7,28.77c-5.8,8.6-13.45,15.2-22.95,19.8c-9.5,4.6-19.79,6.9-30.88,6.9c-24.5,0-46.81-9.24-66.92-27.73
			H1187.95z"/>
	</g>
</g>
</svg>
